<?xml version="1.0" encoding="iso-8859-1"?>
<!-- Generator: Adobe Illustrator 19.0.0, SVG Export Plug-In . SVG Version: 6.00 Build 0)  -->
<svg version="1.1" id="Capa_1" xmlns="http://www.w3.org/2000/svg" xmlns:xlink="http://www.w3.org/1999/xlink" x="0px" y="0px"
	 viewBox="0 0 368 368" style="enable-background:new 0 0 368 368;" xml:space="preserve">
<g>
	<g>
		<path d="M184,0c-39.696,0-72,33.584-72,74.856V184c0,41.28,32.304,74.856,72,74.856S256,225.28,256,184V74.856
			C256,33.584,223.696,0,184,0z M184,242.856c-28.288,0-51.688-22.184-55.424-50.856h110.84
			C235.688,220.68,212.288,242.856,184,242.856z M240,176H128V74.856C128,42.4,153.12,16,184,16s56,26.4,56,58.856V176z"/>
	</g>
</g>
<g>
	<g>
		<path d="M296,144c-4.416,0-8,3.584-8,8v32c0,57.344-46.656,104-104,104S80,241.344,80,184v-32c0-4.416-3.584-8-8-8s-8,3.584-8,8
			v32c0,63.464,49.56,115.448,112,119.592V352h-40c-4.416,0-8,3.584-8,8c0,4.416,3.584,8,8,8h96c4.416,0,8-3.584,8-8
			c0-4.416-3.584-8-8-8h-40v-48.408c62.44-4.144,112-56.128,112-119.592v-32C304,147.584,300.416,144,296,144z"/>
	</g>
</g>
<g>
</g>
<g>
</g>
<g>
</g>
<g>
</g>
<g>
</g>
<g>
</g>
<g>
</g>
<g>
</g>
<g>
</g>
<g>
</g>
<g>
</g>
<g>
</g>
<g>
</g>
<g>
</g>
<g>
</g>
</svg>
